<svg width="508" height="607" viewBox="0 0 508 607" fill="none" xmlns="http://www.w3.org/2000/svg">
<path d="M-26.5479 164.121C-111.252 261.131 -183.65 343.917 -187.166 348.392C-210.979 377.479 -229.678 417.594 -235.911 453.074C-239.267 471.293 -238.468 503.896 -234.313 519.399C-227.76 544.171 -213.376 567.664 -196.276 581.249C-196.276 581.249 -152.845 606.5 -110.892 606.5C-77.1543 606.5 -24.7899 579.171 -24.7899 579.171C7.33374 560.153 18.2014 549.445 97.7913 458.667C129.276 422.548 234.277 302.844 330.967 192.569C427.658 82.2935 507.248 -8.9635 507.887 -10.0822C509.006 -11.5206 470.649 -12 318.342 -12H127.518L-26.5479 164.121Z" fill="url(#paint0_linear_1_37)"/>
<defs>
<linearGradient id="paint0_linear_1_37" x1="134.955" y1="606.5" x2="126.759" y2="-16.7837" gradientUnits="userSpaceOnUse">
<stop stop-color="#FFB470"/>
<stop offset="0.984375" stop-color="#FD37BE"/>
</linearGradient>
</defs>
</svg>
