<svg width="545" height="619" viewBox="0 0 545 619" fill="none" xmlns="http://www.w3.org/2000/svg">
<path d="M10.4521 176.121C-74.2521 273.131 -146.65 355.917 -150.166 360.392C-173.979 389.479 -192.678 429.594 -198.911 465.074C-202.267 483.293 -201.468 515.896 -197.313 531.399C-190.76 556.171 -176.376 579.664 -159.276 593.249C-159.276 593.249 -115.845 618.5 -73.8924 618.5C-40.1543 618.5 12.2101 591.171 12.2101 591.171C44.3337 572.153 55.2014 561.445 134.791 470.667C166.276 434.548 271.277 314.844 367.967 204.569C464.658 94.2935 544.248 3.0365 544.887 1.91779C546.006 0.479431 507.649 0 355.342 0H164.518L10.4521 176.121Z" fill="url(#paint0_linear_1_8)"/>
<defs>
<linearGradient id="paint0_linear_1_8" x1="171.955" y1="618.5" x2="163.759" y2="-4.78368" gradientUnits="userSpaceOnUse">
<stop stop-color="#FFB470"/>
<stop offset="0.984375" stop-color="#FD37BE"/>
</linearGradient>
</defs>
</svg>
