<svg width="570" height="524" viewBox="0 0 570 524" fill="none" xmlns="http://www.w3.org/2000/svg">
<path d="M542.207 438.22C631.416 345.335 707.657 266.075 711.381 261.771C736.547 233.846 757.126 194.663 765.034 159.518C769.251 141.479 769.998 108.874 766.582 93.1923C761.212 68.1376 747.958 43.9886 731.521 29.6085C731.521 29.6085 689.336 2.32653 647.43 0.337551C613.73 -1.26198 560.129 23.5537 560.129 23.5537C527.14 41.0278 515.777 51.2085 431.973 138.11C398.811 172.696 288.253 287.288 186.443 392.855C84.6328 498.422 0.805972 585.803 0.11437 586.89C-1.07128 588.274 37.2193 590.571 189.356 597.792L379.965 606.839L542.207 438.22Z" fill="url(#paint0_linear_1_31)"/>
<defs>
<linearGradient id="paint0_linear_1_31" x1="401.859" y1="-11.3181" x2="357.189" y2="1286.85" gradientUnits="userSpaceOnUse">
<stop stop-color="#AB5AFF"/>
<stop offset="0.984375" stop-color="#620AFF"/>
</linearGradient>
</defs>
</svg>
